<svg xmlns="http://www.w3.org/2000/svg" viewBox="0 0 512 512">
  <defs>
    <linearGradient id="bg" x1="0" x2="1" y1="1" y2="0">
      <stop offset="0%" stop-color="#0f172a" />
      <stop offset="100%" stop-color="#1e293b" />
    </linearGradient>
  </defs>
  <rect width="512" height="512" rx="96" fill="url(#bg)" />
  <path fill="#38bdf8" d="M160 176c0-22.091 17.909-40 40-40h112c22.091 0 40 17.909 40 40v48c0 22.091-17.909 40-40 40h-32l64 72c4.565 5.133 7.158 11.869 7.158 18.958C351.158 380.231 339.389 392 324.116 392H187.884C172.611 392 160 379.389 160 364.116c0-7.089 2.593-13.825 7.158-18.958l64-72h-32c-22.091 0-40-17.909-40-40z" />
</svg>
